# This file uses millimeters as units for non-parametric coordinates.

g default
v -7.844862 -0.003688 2.167447
v 7.844862 -0.003688 2.167447
v -7.844862 1.301604 1.396159
v 7.844862 1.301604 1.396159
v -7.844862 0.805163 -2.167448
v 7.844862 0.805163 -2.167448
v -7.844862 -0.004571 -2.167448
v 7.844862 -0.004571 -2.167448
v 7.844862 0.805163 1.183991
v -7.844862 0.805163 1.183991
v -7.844862 2.625138 1.396159
v 7.844862 2.625138 1.396159
v 7.844862 2.625138 1.183991
v -7.844862 2.625138 1.183991
v 7.844862 1.301604 2.167448
v -7.844862 1.301604 2.167448
vt 0.343750 0.000000
vt 0.656250 0.000000
vt 0.625000 0.250000
vt 0.375000 0.250000
vt 0.375000 0.250000
vt 0.625000 0.250000
vt 0.625000 0.375000
vt 0.375000 0.375000
vt 0.375000 0.500000
vt 0.625000 0.500000
vt 0.625000 0.750000
vt 0.375000 0.750000
vt 0.375000 0.937500
vt 0.625000 0.937500
vt 0.750000 0.250000
vt 0.625000 0.250000
vt 0.375000 0.250000
vt 0.250000 0.250000
vt 0.375000 0.375000
vt 0.625000 0.375000
vt 0.125000 0.000000
vt 0.125000 0.250000
vt 0.875000 0.000000
vt 0.875000 0.250000
vn 0.000000 -0.000001 1.000000
vn 0.000000 -0.000001 1.000000
vn 0.000000 -0.000001 1.000000
vn 0.000000 -0.000001 1.000000
vn 0.000000 1.000000 0.000000
vn 0.000000 1.000000 0.000000
vn 0.000000 1.000000 0.000000
vn 0.000000 1.000000 0.000000
vn 0.000000 0.000000 -1.000000
vn 0.000000 0.000000 -1.000000
vn 0.000000 0.000000 -1.000000
vn 0.000000 0.000000 -1.000000
vn 1.000000 0.000004 0.000000
vn 1.000000 0.000004 0.000000
vn 1.000000 -0.000006 0.000000
vn -1.000000 0.000000 0.000000
vn -1.000000 0.000000 0.000000
vn -1.000000 0.000000 0.000000
vn 0.000000 1.000000 0.000000
vn 0.000000 1.000000 0.000000
vn 0.000000 1.000000 0.000000
vn 0.000000 1.000000 0.000000
vn -1.000000 0.000000 0.000000
vn -1.000000 0.000000 0.000000
vn 0.000000 -1.000000 0.000204
vn 0.000000 -1.000000 0.000204
vn 0.000000 -1.000000 0.000204
vn 0.000000 -1.000000 0.000204
vn 1.000000 0.000005 0.000000
vn 1.000000 0.000005 0.000000
vn 0.000000 0.000000 1.000000
vn 0.000000 0.000000 1.000000
vn 0.000000 0.000000 1.000000
vn 0.000000 0.000000 1.000000
vn 1.000000 0.000000 0.000000
vn 1.000000 0.000000 0.000000
vn 1.000000 0.000000 0.000000
vn 1.000000 0.000000 0.000000
vn 0.000000 0.000000 -1.000000
vn 0.000000 0.000000 -1.000000
vn 0.000000 0.000000 -1.000000
vn 0.000000 0.000000 -1.000000
vn -1.000000 0.000000 0.000000
vn -1.000000 0.000000 0.000000
vn -1.000000 0.000000 0.000000
vn -1.000000 0.000000 0.000000
vn 1.000000 0.000003 0.000000
vn 1.000000 0.000003 0.000000
vn 1.000000 0.000003 0.000000
vn 0.000000 1.000000 0.000000
vn 0.000000 1.000000 0.000000
vn 0.000000 1.000000 0.000000
vn 0.000000 1.000000 0.000000
vn -1.000000 0.000000 0.000000
vn -1.000000 0.000000 0.000000
vn -1.000000 0.000000 0.000000
s off
g polySurface748 pTorus4
f 1/1/1 2/2/2 15/3/3 16/4/4
f 11/5/5 12/6/6 13/7/7 14/8/8
f 5/9/9 6/10/10 8/11/11 7/12/12
s 1
f 2/2/13 9/15/14 4/16/15
s 2
f 1/1/16 3/17/17 10/18/18
s off
f 10/19/19 9/20/20 6/10/21 5/9/22
s 2
f 7/21/23 1/1/16 10/18/18 5/22/24
s off
f 7/12/25 8/11/26 2/14/27 1/13/28
s 1
f 9/15/14 2/2/13 8/23/29 6/24/30
s off
f 3/17/31 4/16/32 12/6/33 11/5/34
f 4/16/35 9/20/36 13/7/37 12/6/38
f 9/20/39 10/19/40 14/8/41 13/7/42
f 10/19/43 3/17/44 11/5/45 14/8/46
f 2/2/47 4/16/48 15/3/49
f 4/16/50 3/17/51 16/4/52 15/3/53
f 3/17/54 1/1/55 16/4/56
